<?xml version="1.0" encoding="UTF-8" standalone="no"?>
<!-- Created with Inkscape (http://www.inkscape.org/) -->

<svg
   viewBox="0 0 357.30836 54.590758"
   version="1.1"
   id="svg1"
   xmlns="http://www.w3.org/2000/svg"
   xmlns:svg="http://www.w3.org/2000/svg">
  <path
     style="fill:#070707;fill-opacity:1;stroke:#070707;stroke-width:0.325268;stroke-opacity:1"
     d="m 49.72259,32.646038 v 9.107496 H 15.114106 q -3.111728,0 -5.8439759,-1.138437 -2.732249,-1.214333 -4.781436,-3.187624 -1.97329,-2.049186 -3.187623,-4.781435 Q 0.16263415,29.913789 0.16263415,26.802062 V 0.16263663 H 9.2701301 V 26.802062 q 0,2.428665 1.6697069,4.174269 1.745604,1.669707 4.174269,1.669707 z"
     id="text4-5-4" />
  <path
     id="path35"
     style="fill:#070707;fill-opacity:1;stroke:#070707;stroke-width:0.325268;stroke-opacity:1"
     d="m 69.683024,11.850335 c -2.074483,0 -4.022074,0.404842 -5.843571,1.214396 -1.821497,0.758958 -3.415497,1.821796 -4.78162,3.187919 -1.315525,1.315526 -2.378364,2.884159 -3.187919,4.705656 -0.758957,1.821498 -1.138432,3.769088 -1.138432,5.843571 0,2.074483 0.379475,4.02259 1.138432,5.844088 0.809555,1.821497 1.872394,3.415497 3.187919,4.78162 1.366123,1.315526 2.960123,2.377847 4.78162,3.187402 1.821497,0.758957 3.769088,1.138432 5.843571,1.138432 h 25.121467 c 2.07448,0 4.02259,-0.379475 5.844079,-1.138432 1.8215,-0.809555 3.39013,-1.871876 4.70566,-3.187402 1.36613,-1.366123 2.42845,-2.960123 3.1874,-4.78162 0.80956,-1.821498 1.2144,-3.769605 1.2144,-5.844088 0,-2.074483 -0.40484,-4.022073 -1.2144,-5.843571 -0.75895,-1.821497 -1.82127,-3.39013 -3.1874,-4.705656 -1.31553,-1.366123 -2.88416,-2.428961 -4.70566,-3.187919 -1.821489,-0.809554 -3.769599,-1.214396 -5.844079,-1.214396 z m 0,9.107971 h 25.121467 c 1.61911,0 2.98532,0.581895 4.09845,1.74563 1.163739,1.113137 1.745629,2.478832 1.745629,4.097941 0,1.619108 -0.58189,3.010687 -1.745629,4.174422 -1.11313,1.113137 -2.47934,1.669666 -4.09845,1.669666 H 69.683024 c -1.619108,0 -3.01017,-0.556529 -4.173905,-1.669666 -1.113137,-1.163735 -1.669666,-2.555314 -1.669666,-4.174422 0,-1.619109 0.556529,-2.984804 1.669666,-4.097941 1.163735,-1.163735 2.554797,-1.74563 4.173905,-1.74563 z" />
  <path
     style="fill:#070707;fill-opacity:1;stroke:#070707;stroke-width:0.325268;stroke-opacity:1"
     d="m 153.85165,45.320636 q 1.51791,0 2.50456,-1.062541 1.06254,-0.986645 1.06254,-2.504561 V 26.802062 q 0,-2.428666 -1.7456,-4.098373 -1.66971,-1.745604 -4.09838,-1.745604 h -23.4518 q -2.42866,0 -4.17427,1.745604 -1.66971,1.669707 -1.66971,4.098373 0,2.428665 1.66971,4.174269 1.74561,1.669707 4.17427,1.669707 h 23.83128 v 9.107496 h -23.83128 q -3.11173,0 -5.84398,-1.138437 -2.73224,-1.214333 -4.78143,-3.187624 -1.97329,-2.049186 -3.18762,-4.781435 -1.13844,-2.732249 -1.13844,-5.843976 0,-3.111728 1.13844,-5.843977 1.21433,-2.732248 3.18762,-4.705539 2.04919,-2.049187 4.78143,-3.187624 2.73225,-1.214332 5.84398,-1.214332 h 23.4518 q 3.11173,0 5.84398,1.214332 2.73225,1.138437 4.70554,3.187624 2.04918,1.973291 3.18762,4.705539 1.21433,2.732249 1.21433,5.843977 v 14.951472 q 0,2.656353 -0.98664,4.933226 -0.98665,2.352766 -2.73225,4.022476 -1.7456,1.7456 -4.09837,2.73225 -2.27688,0.98664 -4.85733,0.98664 z"
     id="path36" />
  <path
     id="path37"
     style="fill:#070707;fill-opacity:1;stroke:#070707;stroke-width:0.325268;stroke-opacity:1"
     d="m 180.94651,7.9799036 h -9.1075 v -5.312706 h 9.1075 z m -9.1075,3.8706864 h 9.1075 v 29.902944 h -9.1075 z" />
  <path
     style="fill:#070707;fill-opacity:1;stroke:#070707;stroke-width:0.325268;stroke-opacity:1"
     d="m 235.43969,41.753534 h -35.21565 q -3.11172,0 -5.84397,-1.138437 -2.73225,-1.214333 -4.78144,-3.187624 -1.97329,-2.049186 -3.18762,-4.781435 -1.13844,-2.732249 -1.13844,-5.843976 0,-3.111728 1.13844,-5.843977 1.21433,-2.732248 3.18762,-4.705539 2.04919,-2.049187 4.78144,-3.187624 2.73225,-1.214332 5.84397,-1.214332 h 35.21565 v 9.107495 h -35.21565 q -2.42866,0 -4.17426,1.745604 -1.66971,1.669707 -1.66971,4.098373 0,2.428665 1.66971,4.174269 1.7456,1.669707 4.17426,1.669707 h 35.21565 z"
     id="path39" />
  <path
     style="fill:#070707;fill-opacity:1;stroke:#070707;stroke-width:0.325268;stroke-opacity:1"
     d="m 273.69118,41.753534 -10.47362,-10.47362 h -15.86223 v 10.47362 h -9.10749 V 2.6671976 h 9.10749 V 22.32421 h 15.86223 l 10.47362,-10.47362 h 12.75049 l -15.02737,14.951472 15.02737,14.951472 z"
     id="path40" />
  <path
     style="fill:#070707;fill-opacity:1;stroke:#070707;stroke-width:0.325268;stroke-opacity:1"
     d="m 297.97783,41.753534 h -9.10749 V 2.6671976 h 9.10749 z"
     id="path41" />
  <path
     style="fill:#070707;fill-opacity:1;stroke:#070707;stroke-width:0.325268;stroke-opacity:1"
     d="m 322.87163,52.606626 6.29935,-10.853092 h -2.50456 q -3.26352,0 -5.99577,-1.517916 -2.73225,-1.593812 -4.40195,-4.477852 L 302.30387,11.85059 h 10.39772 l 11.30848,19.429324 q 0.91075,1.44202 2.65635,1.44202 h 7.74137 L 346.62701,11.85059 h 10.39773 l -23.75539,40.756036 z"
     id="path42" />
  <path
     d="m 346.68295,49.352126 h 4.23584 v 0.71592 h -1.72417 v 2.55343 h -0.7875 v -2.55343 h -1.72417 z m 4.5222,3.26935 v -2.88753 q 0,-0.16108 0.0895,-0.2804 0.0895,-0.11932 0.21477,-0.16704 0.13125,-0.0477 0.27444,-0.0179 0.14915,0.0239 0.25653,0.14915 l 2.14178,2.4699 2.14178,-2.4699 q 0.10739,-0.12529 0.25057,-0.14915 0.14915,-0.0298 0.27444,0.0179 0.13125,0.0477 0.22074,0.16704 0.0895,0.11932 0.0895,0.2804 v 2.88753 h -0.70995 v -2.27303 l -1.90911,2.20144 q -0.0716,0.0835 -0.16705,0.12528 -0.0955,0.0418 -0.19687,0.0418 -0.0955,0 -0.19091,-0.0418 -0.0895,-0.0418 -0.16109,-0.12528 l -1.9091,-2.20144 v 2.27303 z"
     id="text3-1-50"
     style="fill:#070707;fill-opacity:1;stroke:#070707;stroke-width:0.298298;stroke-opacity:1"
     aria-label="TM" />
  <defs
     id="defs1" />
</svg>
